<?xml version="1.0" ?><svg id="Слой_1" style="enable-background:new 0 0 192 192;" version="1.1" viewBox="0 0 192 192" xml:space="preserve" xmlns="http://www.w3.org/2000/svg" xmlns:xlink="http://www.w3.org/1999/xlink"><style type="text/css">
	.st0{fill:#00B1DD;}
	.st1{fill:#259CEF;}
	.st2{fill:#FFCF48;}
	.st3{fill:#FFBC33;}
</style><g><g><path class="st0" d="M26.6,180c-3.4,0-6.7-1.3-9.1-3.6l-0.3-0.3c-5.3-5.1-5.2-13.7,0.1-19.2l0.3-0.3c0.4-0.4,0.8-0.7,1.2-1.1    L115.4,66c1.2-1.1,2.8-1.8,4.5-1.8c1.6,0,3.2,0.6,4.3,1.7c2.4,2.3,2.5,6.2,0.2,8.8L38,174.1c-0.4,0.5-0.7,0.9-1.1,1.3l-0.3,0.3    C34,178.4,30.3,180,26.6,180L26.6,180z"/><path d="M119.8,66.5c1,0,2,0.4,2.8,1.1c1.5,1.5,1.6,4,0.1,5.7l-86.4,99.3c-0.3,0.4-0.6,0.8-1,1.1l-0.3,0.3    c-2.3,2.4-5.4,3.6-8.5,3.6c-2.8,0-5.5-1-7.5-3l-0.3-0.3c-4.4-4.2-4.3-11.5,0.1-16l0.3-0.3c0.3-0.4,0.7-0.7,1.1-1l96.6-89.5    C117.7,66.9,118.8,66.5,119.8,66.5 M119.8,62c-2.2,0-4.3,0.8-6,2.4l-96.5,89.4c-0.5,0.4-1,0.8-1.4,1.3l-0.3,0.3    c-6.2,6.4-6.2,16.4,0,22.4l0.3,0.3c2.8,2.8,6.6,4.3,10.7,4.3c4.4,0,8.6-1.8,11.7-5l0.3-0.3c0.4-0.4,0.8-0.9,1.2-1.4l86.3-99.2    c3-3.5,2.9-8.7-0.4-11.9C124.2,62.9,122.1,62,119.8,62L119.8,62z"/></g><g><path class="st1" d="M29,174.7l-0.3-0.3c-4.4-4.2-4.3-11.5,0.1-16l0.3-0.3c0.3-0.4,0.7-0.7,1.1-1l94.9-83.6c0-1.1-1.7-5.1-2.6-5.9    c-1.5-1.5-4-1.5-5.7,0.1l-96.6,89.5c-0.4,0.3-0.7,0.6-1.1,1l-0.3,0.3c-4.4,4.6-4.5,11.8-0.1,16l0.3,0.3c3.4,3.3,8.4,3.8,12.6,1.8    C30.7,176.1,29.8,175.5,29,174.7z"/></g><g><path class="st2" d="M128,102.6c-3.5,0-6.4-2.4-7.2-5.7l-4.7-20.7c-0.2-0.9-0.8-1.7-1.7-2l-19.7-7.9c-2.6-1-4.4-3.4-4.6-6.2    c-0.2-2.8,1.1-5.4,3.6-6.9l18.2-10.8c0.8-0.5,1.3-1.3,1.4-2.3l1.4-21.2c0.3-3.9,3.5-6.9,7.4-6.9c1.8,0,3.5,0.6,4.8,1.8l15.9,14    c0.5,0.5,1.2,0.7,1.9,0.7c0.2,0,0.5,0,0.7-0.1l20.5-5.2c0.6-0.2,1.2-0.2,1.8-0.2c2.5,0,4.7,1.2,6.1,3.3c1.4,2.1,1.6,4.7,0.6,6.9    l-8.4,19.5c-0.4,0.9-0.3,1.8,0.2,2.6l11.3,17.9c1.4,2.3,1.5,5.1,0.2,7.5c-1.3,2.3-3.8,3.8-6.4,3.8c-0.2,0-0.5,0-0.7,0l-21.1-1.9    c-0.1,0-0.2,0-0.3,0c-0.8,0-1.6,0.4-2.2,1l-13.6,16.3C132.2,101.6,130.1,102.6,128,102.6z"/><path d="M122,14.3c1.2,0,2.3,0.4,3.3,1.3l15.9,14c0.9,0.8,2.1,1.3,3.4,1.3c0.4,0,0.8-0.1,1.3-0.2l20.5-5.2    c0.4-0.1,0.9-0.2,1.3-0.2c3.5,0,6.1,3.6,4.6,7.1L164,51.9c-0.7,1.5-0.5,3.3,0.4,4.7l11.3,17.9c2.2,3.4-0.4,7.8-4.3,7.8    c-0.2,0-0.3,0-0.5,0l-21.1-1.9c-0.2,0-0.3,0-0.5,0c-1.5,0-2.9,0.7-3.9,1.8l-13.6,16.3c-1,1.3-2.5,1.8-3.9,1.8c-2.2,0-4.4-1.5-5-4    l-4.7-20.7c-0.4-1.6-1.5-3-3.1-3.6l-19.7-7.9c-3.9-1.6-4.3-7-0.7-9.1L113,44.2c1.4-0.9,2.4-2.4,2.5-4l1.4-21.2    C117.1,16.2,119.5,14.3,122,14.3 M122,9.8c-5.1,0-9.3,3.9-9.6,9L111,39.9c0,0.2-0.1,0.4-0.3,0.5L92.5,51.2c-3.2,1.9-4.9,5.3-4.7,9    c0.3,3.7,2.6,6.8,6,8.2l19.7,7.9c0.2,0.1,0.3,0.2,0.4,0.4l4.7,20.7c1,4.4,4.9,7.5,9.4,7.5c2.8,0,5.5-1.3,7.3-3.5l13.6-16.3    c0.1-0.1,0.3-0.2,0.5-0.2c0,0,0,0,0.1,0l21.1,1.9c0.3,0,0.6,0,0.9,0c3.5,0,6.7-1.9,8.4-5c1.7-3.1,1.6-6.7-0.3-9.7l-11.3-17.9    c-0.1-0.2-0.1-0.4,0-0.6l8.4-19.5c1.3-3,1-6.4-0.8-9.1c-1.8-2.7-4.8-4.3-8-4.3c-0.8,0-1.6,0.1-2.4,0.3l-20.5,5.2c0,0-0.1,0-0.1,0    c-0.1,0-0.3-0.1-0.4-0.1l-15.9-14C126.6,10.6,124.3,9.8,122,9.8L122,9.8z"/></g></g><g><g><path class="st3" d="M132,96.3c-9.2-25.7-11.3-51.5-6.1-77.3c0.1-0.9,0.3-1.7,0.7-2.3l-1.3-1.2c-3.2-2.8-8.2-0.7-8.4,3.5    l-1.4,21.2c-0.1,1.7-1,3.2-2.5,4L94.8,55.1c-3.6,2.2-3.2,7.5,0.7,9.1l19.7,7.9c1.6,0.6,2.7,2,3.1,3.6l4.7,20.7    c0.9,4.1,6.2,5.4,8.9,2.1l0.6-0.8C132.3,97.3,132.1,96.8,132,96.3z"/></g></g></svg>