<?xml version="1.0" ?><svg clip-rule="evenodd" fill-rule="evenodd" image-rendering="optimizeQuality" shape-rendering="geometricPrecision" text-rendering="geometricPrecision" viewBox="0 0 500 500" xmlns="http://www.w3.org/2000/svg"><defs><radialGradient gradientUnits="userSpaceOnUse" id="a"><stop offset="0" stop-color="#0076D8"/><stop offset="1" stop-color="#4EAFFF"/></radialGradient></defs><g><path d="M30 100h440c6 0 10 4 10 10v280c0 6-4 10-10 10h-440c-6 0-10-4-10-10v-280c0-6 4-10 10-10z" fill="#434242"/><path d="M40 116h30v30h-30v-30zm0 60h30v30h-30v-30zm0 60h30v30h-30v-30zm0 60h30v30h-30v-30zm0 60h30v30h-30v-30zm389-240h30v30h-30v-30zm0 60h30v30h-30v-30zm0 60h30v30h-30v-30zm0 60h30v30h-30v-30zm0 60h30v30h-30v-30z" fill="#EDEDED"/><path d="M95 115h310c3 0 5 2 5 5v260c0 3-2 5-5 5h-310c-3 0-5-2-5-5v-260c0-3 2-5 5-5z" fill="#008BFF"/><path d="M95 115h212v4c0 110-55 207-139 266h-73c-3 0-5-2-5-5v-260c0-3 2-5 5-5z" fill="url(#a)"/><path d="M305 259l-110 62c-3 2-7 2-10 0-3-1-5-5-5-8v-126c0-3 2-7 5-8 3-2 7-2 10 0l110 62c3 2 5 5 5 9s-2 7-5 9z" fill="#EDEDED" stroke="#434242" stroke-width="10"/></g></svg>