<?xml version="1.0" ?><svg clip-rule="evenodd" fill-rule="evenodd" image-rendering="optimizeQuality" shape-rendering="geometricPrecision" text-rendering="geometricPrecision" viewBox="0 0 500 500" xmlns="http://www.w3.org/2000/svg" xmlns:xlink="http://www.w3.org/1999/xlink"><defs><style type="text/css"><![CDATA[
    .str1 {stroke:#434242;stroke-width:10}
    .str0 {stroke:#434242;stroke-width:15}
    .fil0 {fill:#434242}
    .fil3 {fill:#008BFF}
    .fil2 {fill:url(#id0)}
    .fil5 {fill:url(#id1)}
    .fil4 {fill:url(#id2)}
    .fil1 {fill:url(#id3)}
   ]]></style><linearGradient gradientUnits="userSpaceOnUse" id="id0" x1="254.998" x2="254.998" y1="155.079" y2="325.077"><stop offset="0" stop-color="#008BFF"/><stop offset="1" stop-color="#0af"/></linearGradient><linearGradient gradientUnits="userSpaceOnUse" id="id1" x1="249.999" x2="249.999" y1="373.399" y2="426.599"><stop offset="0" stop-color="#FCFCFD"/><stop offset="1" stop-color="#fff"/></linearGradient><linearGradient gradientUnits="userSpaceOnUse" id="id2" x1="249.998" x2="249.998" y1="60.8" y2="129.202"/><linearGradient gradientUnits="userSpaceOnUse" id="id3" x1="249.999" x2="249.999" y1="182.68" y2="357.478"/></defs><g id="Layer_x0020_1"><path class="fil0" d="M70 135h360c5 0 10 5 10 10v240h-380v-240c0-5 5-10 10-10z"/><path class="fil1 str0" d="M55 155h390c8 0 15 7 15 15v205c0 6-5 10-10 10h-50c-15 0-20-30-40-30h-220c-20 0-25 30-40 30h-50c-5 0-10-4-10-10v-205c0-8 7-15 15-15z"/><path class="fil2 str1" d="M100 155h310v155c0 8-7 15-15 15h-280c-8 0-15-7-15-15v-155z"/><path class="fil3" d="M60 185h20v20h-20v-20zm0 40h20v10h-20v-10zm0 30h20v10h-20v-10z"/><path class="fil4 str1" d="M120 140h260v-80c0-5-5-10-10-10h-240c-6 0-10 4-10 10v80z"/><path class="fil5 str1" d="M355 365h-210c-3 0-6 1-8 4l-36 50c-2 3-2 7 0 11 1 3 5 5 8 5h282c3 0 7-2 8-5 2-4 2-8 0-11l-36-50c-2-3-5-4-8-4z"/></g></svg>