<svg clip-rule="evenodd" fill-rule="evenodd" image-rendering="optimizeQuality" shape-rendering="geometricPrecision" text-rendering="geometricPrecision" viewBox="0 0 5000 5000" xmlns="http://www.w3.org/2000/svg" xmlns:xlink="http://www.w3.org/1999/xlink"><linearGradient id="a" gradientUnits="userSpaceOnUse" x1="2499.99" x2="2499.99" y1="4400" y2="1600"><stop offset="0" stop-color="#474747"/><stop offset="1" stop-color="#747474"/></linearGradient><radialGradient id="b" r="42%"><stop offset="0" stop-color="#fff"/><stop offset="1" stop-color="#fff"/></radialGradient><radialGradient id="c" cy="49%" r="38%"><stop offset="0" stop-color="#0af"/><stop offset="1" stop-color="#008bff"/></radialGradient><path d="m600 1400h1743l257-600c22-51 45-100 100-100h1200c55 0 78 49 100 100l257 600h143c110 0 200 90 200 200v2800c0 110-90 200-200 200h-3800c-110 0-200-90-200-200v-2800c0-110 90-200 200-200zm250-300h600c27 0 50 23 50 50v50h100v200h-900v-200h100v-50c0-27 23-50 50-50z" fill="#434242"/><rect fill="url(#a)" height="2800" rx="100" width="3800" x="600" y="1600"/><circle cx="2500" cy="3100" fill="url(#b)" r="1200"/><circle cx="2500" cy="3100" fill="url(#c)" r="800" stroke="#434242" stroke-width="100"/><circle cx="4100" cy="1900" fill="#fff" r="150"/><path d="m1901 3140c-1-13-1-27-1-40 0-331 269-600 600-600" fill="none" stroke="#fefefe" stroke-linecap="round" stroke-width="100"/><rect fill="#fff" height="400" rx="100" stroke="#2b2a29" stroke-width="20" width="600" x="3000" y="900"/></svg>