<svg clip-rule="evenodd" height="5000" width="5000" xmlns="http://www.w3.org/2000/svg" xmlns:xlink="http://www.w3.org/1999/xlink"><linearGradient id="a" x1="1" x2="0" y1=".5" y2=".5"><stop offset="0" stop-color="#008bff"/><stop offset="1" stop-color="#0af"/></linearGradient><path d="m-1-1h582v402h-582z" fill="none"/><path d="m1968 4061c-71 71-142 142-284 142s-284-142-284-284v-2838c0-142 142-284 284-284s213 71 284 142l1182 1180v-1269c0-28 23-50 50-50h350c28 0 50 22 50 50v3300c0 28-22 50-50 50h-350c-27 0-50-22-50-50v-1272z" fill="url(#a)" stroke="#434242" stroke-linejoin="round" stroke-width="100" transform="matrix(-1 0 0 -1 5000 5000)"/></svg>