<svg clip-rule="evenodd" fill-rule="evenodd" image-rendering="optimizeQuality" shape-rendering="geometricPrecision" text-rendering="geometricPrecision" viewBox="0 0 500 500" xmlns="http://www.w3.org/2000/svg"><path d="m200 340h250c6 0 10 4 10 10v100c0 6-4 10-10 10h-250c-6 0-10-4-10-10v-100c0-6 4-10 10-10zm0-300h250c6 0 10 4 10 10v100c0 6-4 10-10 10h-250c-6 0-10-4-10-10v-100c0-6 4-10 10-10zm0 150h250c6 0 10 4 10 10v100c0 6-4 10-10 10h-250c-6 0-10-4-10-10v-100c0-6 4-10 10-10zm-150 150h100c6 0 10 4 10 10v100c0 6-4 10-10 10h-100c-6 0-10-4-10-10v-100c0-6 4-10 10-10zm0-300h100c6 0 10 4 10 10v100c0 6-4 10-10 10h-100c-6 0-10-4-10-10v-100c0-6 4-10 10-10zm0 150h100c6 0 10 4 10 10v100c0 6-4 10-10 10h-100c-6 0-10-4-10-10v-100c0-6 4-10 10-10z" fill="#279dff" stroke="#434242" stroke-width="10"/></svg>